<mxfile host="app.diagrams.net" agent="Mozilla/5.0 (Windows NT 10.0; Win64; x64) AppleWebKit/537.36 (KHTML, like Gecko) Chrome/140.0.0.0 Safari/537.36 Edg/140.0.0.0" version="28.2.3">
  <diagram name="第 1 页" id="crZLB2EZC9pPdn_-2iDU">
    <mxGraphModel dx="2138" dy="1106" grid="0" gridSize="10" guides="1" tooltips="1" connect="1" arrows="1" fold="1" page="0" pageScale="1" pageWidth="827" pageHeight="1169" math="0" shadow="0">
      <root>
        <mxCell id="0" />
        <mxCell id="1" parent="0" />
        <mxCell id="amqWgZbNLsDAbs7mApLn-33" value="" style="rounded=0;whiteSpace=wrap;html=1;fillColor=#d5e8d4;strokeColor=#82b366;" vertex="1" parent="1">
          <mxGeometry x="-224" y="286" width="967" height="128" as="geometry" />
        </mxCell>
        <mxCell id="amqWgZbNLsDAbs7mApLn-26" value="" style="rounded=0;whiteSpace=wrap;html=1;fillColor=#ffe6cc;strokeColor=#d79b00;" vertex="1" parent="1">
          <mxGeometry x="-224" y="663" width="967" height="116" as="geometry" />
        </mxCell>
        <mxCell id="amqWgZbNLsDAbs7mApLn-25" value="" style="rounded=0;whiteSpace=wrap;html=1;fillColor=#dae8fc;strokeColor=#6c8ebf;" vertex="1" parent="1">
          <mxGeometry x="-224" y="426" width="967" height="225" as="geometry" />
        </mxCell>
        <mxCell id="amqWgZbNLsDAbs7mApLn-38" style="edgeStyle=orthogonalEdgeStyle;rounded=0;orthogonalLoop=1;jettySize=auto;html=1;" edge="1" parent="1" source="amqWgZbNLsDAbs7mApLn-1" target="amqWgZbNLsDAbs7mApLn-3">
          <mxGeometry relative="1" as="geometry">
            <Array as="points">
              <mxPoint x="-5" y="401" />
              <mxPoint x="413" y="401" />
            </Array>
          </mxGeometry>
        </mxCell>
        <mxCell id="amqWgZbNLsDAbs7mApLn-39" value="&lt;font style=&quot;font-size: 16px;&quot;&gt;发起审批流&lt;/font&gt;" style="edgeLabel;html=1;align=center;verticalAlign=middle;resizable=0;points=[];" vertex="1" connectable="0" parent="amqWgZbNLsDAbs7mApLn-38">
          <mxGeometry x="0.0146" y="-2" relative="1" as="geometry">
            <mxPoint x="158" y="53" as="offset" />
          </mxGeometry>
        </mxCell>
        <mxCell id="amqWgZbNLsDAbs7mApLn-1" value="&lt;div data-lark-html-role=&quot;root&quot;&gt;&lt;span style=&quot;white-space: pre;&quot; class=&quot;text-only&quot;&gt;星图&lt;/span&gt;&lt;/div&gt;" style="ellipse;shape=cloud;whiteSpace=wrap;html=1;" vertex="1" parent="1">
          <mxGeometry x="-65" y="310" width="120" height="80" as="geometry" />
        </mxCell>
        <mxCell id="amqWgZbNLsDAbs7mApLn-7" style="edgeStyle=orthogonalEdgeStyle;rounded=0;orthogonalLoop=1;jettySize=auto;html=1;" edge="1" parent="1" source="amqWgZbNLsDAbs7mApLn-3" target="amqWgZbNLsDAbs7mApLn-6">
          <mxGeometry relative="1" as="geometry" />
        </mxCell>
        <mxCell id="amqWgZbNLsDAbs7mApLn-20" style="edgeStyle=orthogonalEdgeStyle;rounded=0;orthogonalLoop=1;jettySize=auto;html=1;" edge="1" parent="1" source="amqWgZbNLsDAbs7mApLn-3" target="amqWgZbNLsDAbs7mApLn-5">
          <mxGeometry relative="1" as="geometry" />
        </mxCell>
        <mxCell id="amqWgZbNLsDAbs7mApLn-24" value="&lt;font style=&quot;font-size: 14px;&quot;&gt;查询角色与用户信息&lt;/font&gt;" style="edgeLabel;html=1;align=center;verticalAlign=middle;resizable=0;points=[];" vertex="1" connectable="0" parent="amqWgZbNLsDAbs7mApLn-20">
          <mxGeometry x="-0.0551" y="1" relative="1" as="geometry">
            <mxPoint as="offset" />
          </mxGeometry>
        </mxCell>
        <mxCell id="amqWgZbNLsDAbs7mApLn-3" value="" style="image;aspect=fixed;html=1;points=[];align=center;fontSize=12;image=img/lib/azure2/compute/Azure_Spring_Cloud.svg;" vertex="1" parent="1">
          <mxGeometry x="373" y="520" width="80" height="80" as="geometry" />
        </mxCell>
        <mxCell id="amqWgZbNLsDAbs7mApLn-13" style="edgeStyle=orthogonalEdgeStyle;rounded=0;orthogonalLoop=1;jettySize=auto;html=1;" edge="1" parent="1" source="amqWgZbNLsDAbs7mApLn-4" target="amqWgZbNLsDAbs7mApLn-11">
          <mxGeometry relative="1" as="geometry" />
        </mxCell>
        <mxCell id="amqWgZbNLsDAbs7mApLn-16" style="edgeStyle=orthogonalEdgeStyle;rounded=0;orthogonalLoop=1;jettySize=auto;html=1;" edge="1" parent="1" source="amqWgZbNLsDAbs7mApLn-4" target="amqWgZbNLsDAbs7mApLn-15">
          <mxGeometry relative="1" as="geometry" />
        </mxCell>
        <mxCell id="amqWgZbNLsDAbs7mApLn-18" style="edgeStyle=orthogonalEdgeStyle;rounded=0;orthogonalLoop=1;jettySize=auto;html=1;entryX=0.5;entryY=0;entryDx=0;entryDy=0;" edge="1" parent="1" source="amqWgZbNLsDAbs7mApLn-4" target="amqWgZbNLsDAbs7mApLn-17">
          <mxGeometry relative="1" as="geometry" />
        </mxCell>
        <mxCell id="amqWgZbNLsDAbs7mApLn-4" value="&lt;font style=&quot;font-size: 18px;&quot;&gt;cfc-workflow-engine&lt;/font&gt;" style="text;html=1;align=center;verticalAlign=middle;whiteSpace=wrap;rounded=0;" vertex="1" parent="1">
          <mxGeometry x="319.5" y="604" width="187" height="30" as="geometry" />
        </mxCell>
        <mxCell id="amqWgZbNLsDAbs7mApLn-23" style="edgeStyle=orthogonalEdgeStyle;rounded=0;orthogonalLoop=1;jettySize=auto;html=1;" edge="1" parent="1" source="amqWgZbNLsDAbs7mApLn-5" target="amqWgZbNLsDAbs7mApLn-3">
          <mxGeometry relative="1" as="geometry" />
        </mxCell>
        <mxCell id="amqWgZbNLsDAbs7mApLn-29" value="&lt;font style=&quot;font-size: 16px;&quot;&gt;流程维护&lt;/font&gt;" style="edgeLabel;html=1;align=center;verticalAlign=middle;resizable=0;points=[];" vertex="1" connectable="0" parent="amqWgZbNLsDAbs7mApLn-23">
          <mxGeometry x="-0.2008" y="-1" relative="1" as="geometry">
            <mxPoint as="offset" />
          </mxGeometry>
        </mxCell>
        <mxCell id="amqWgZbNLsDAbs7mApLn-5" value="&lt;font style=&quot;font-size: 18px;&quot;&gt;IAM&lt;/font&gt;" style="ellipse;shape=cloud;whiteSpace=wrap;html=1;" vertex="1" parent="1">
          <mxGeometry x="-173" y="433" width="120" height="80" as="geometry" />
        </mxCell>
        <mxCell id="amqWgZbNLsDAbs7mApLn-6" value="" style="rounded=1;whiteSpace=wrap;html=1;" vertex="1" parent="1">
          <mxGeometry x="563" y="530" width="120" height="60" as="geometry" />
        </mxCell>
        <UserObject label="&lt;img src=&quot;https://camunda.com/wp-content/uploads/2020/05/logo-camunda-black.svg&quot; alt=&quot;Camunda Logo&quot;&gt;" link="&lt;img src=&quot;https://camunda.com/wp-content/uploads/2020/05/logo-camunda-black.svg&quot; alt=&quot;Camunda Logo&quot;&gt;" id="amqWgZbNLsDAbs7mApLn-8">
          <mxCell style="text;whiteSpace=wrap;html=1;" vertex="1" parent="1">
            <mxGeometry x="572" y="538" width="28" height="36" as="geometry" />
          </mxCell>
        </UserObject>
        <mxCell id="amqWgZbNLsDAbs7mApLn-9" value="&lt;span style=&quot;font-size: 18px;&quot;&gt;Camunda框架&lt;/span&gt;" style="text;html=1;align=center;verticalAlign=middle;whiteSpace=wrap;rounded=0;" vertex="1" parent="1">
          <mxGeometry x="529.5" y="604" width="187" height="30" as="geometry" />
        </mxCell>
        <mxCell id="amqWgZbNLsDAbs7mApLn-11" value="&lt;font style=&quot;font-size: 18px;&quot;&gt;MySQL&lt;/font&gt;" style="rounded=1;whiteSpace=wrap;html=1;" vertex="1" parent="1">
          <mxGeometry x="199.5" y="711" width="120" height="60" as="geometry" />
        </mxCell>
        <mxCell id="amqWgZbNLsDAbs7mApLn-15" value="&lt;font style=&quot;font-size: 18px;&quot;&gt;Redis&lt;/font&gt;" style="rounded=1;whiteSpace=wrap;html=1;" vertex="1" parent="1">
          <mxGeometry x="353" y="711" width="120" height="60" as="geometry" />
        </mxCell>
        <mxCell id="amqWgZbNLsDAbs7mApLn-17" value="&lt;font style=&quot;font-size: 18px;&quot;&gt;zookeeper&lt;/font&gt;" style="rounded=1;whiteSpace=wrap;html=1;" vertex="1" parent="1">
          <mxGeometry x="506.5" y="711" width="120" height="60" as="geometry" />
        </mxCell>
        <mxCell id="amqWgZbNLsDAbs7mApLn-27" value="&lt;font style=&quot;font-size: 16px;&quot;&gt;基础设施&lt;/font&gt;" style="text;html=1;align=center;verticalAlign=middle;whiteSpace=wrap;rounded=0;" vertex="1" parent="1">
          <mxGeometry x="-224" y="663" width="80" height="30" as="geometry" />
        </mxCell>
        <mxCell id="amqWgZbNLsDAbs7mApLn-28" value="&lt;font style=&quot;font-size: 16px;&quot;&gt;中台&lt;/font&gt;" style="text;html=1;align=center;verticalAlign=middle;whiteSpace=wrap;rounded=0;" vertex="1" parent="1">
          <mxGeometry x="-224" y="426" width="43" height="30" as="geometry" />
        </mxCell>
        <mxCell id="amqWgZbNLsDAbs7mApLn-34" value="&lt;font style=&quot;font-size: 16px;&quot;&gt;其他业务服务&lt;/font&gt;" style="text;html=1;align=center;verticalAlign=middle;whiteSpace=wrap;rounded=0;" vertex="1" parent="1">
          <mxGeometry x="-224" y="291" width="110" height="30" as="geometry" />
        </mxCell>
        <mxCell id="amqWgZbNLsDAbs7mApLn-35" value="业务服务2" style="ellipse;shape=cloud;whiteSpace=wrap;html=1;" vertex="1" parent="1">
          <mxGeometry x="136" y="310" width="120" height="80" as="geometry" />
        </mxCell>
        <mxCell id="amqWgZbNLsDAbs7mApLn-41" style="edgeStyle=orthogonalEdgeStyle;rounded=0;orthogonalLoop=1;jettySize=auto;html=1;" edge="1" parent="1" source="amqWgZbNLsDAbs7mApLn-36" target="amqWgZbNLsDAbs7mApLn-3">
          <mxGeometry relative="1" as="geometry">
            <Array as="points">
              <mxPoint x="413" y="425" />
              <mxPoint x="413" y="425" />
            </Array>
          </mxGeometry>
        </mxCell>
        <mxCell id="amqWgZbNLsDAbs7mApLn-36" value="业务服务2" style="ellipse;shape=cloud;whiteSpace=wrap;html=1;" vertex="1" parent="1">
          <mxGeometry x="337" y="310" width="120" height="80" as="geometry" />
        </mxCell>
        <mxCell id="amqWgZbNLsDAbs7mApLn-37" value="业务服务2" style="ellipse;shape=cloud;whiteSpace=wrap;html=1;" vertex="1" parent="1">
          <mxGeometry x="538" y="310" width="120" height="80" as="geometry" />
        </mxCell>
        <mxCell id="amqWgZbNLsDAbs7mApLn-40" style="edgeStyle=orthogonalEdgeStyle;rounded=0;orthogonalLoop=1;jettySize=auto;html=1;entryX=0.5;entryY=0.025;entryDx=0;entryDy=0;entryPerimeter=0;" edge="1" parent="1" source="amqWgZbNLsDAbs7mApLn-35" target="amqWgZbNLsDAbs7mApLn-3">
          <mxGeometry relative="1" as="geometry">
            <Array as="points">
              <mxPoint x="196" y="401" />
              <mxPoint x="413" y="401" />
            </Array>
          </mxGeometry>
        </mxCell>
        <mxCell id="amqWgZbNLsDAbs7mApLn-43" style="edgeStyle=orthogonalEdgeStyle;rounded=0;orthogonalLoop=1;jettySize=auto;html=1;entryX=0.5;entryY=0;entryDx=0;entryDy=0;entryPerimeter=0;" edge="1" parent="1" source="amqWgZbNLsDAbs7mApLn-37" target="amqWgZbNLsDAbs7mApLn-3">
          <mxGeometry relative="1" as="geometry">
            <Array as="points">
              <mxPoint x="598" y="401" />
              <mxPoint x="413" y="401" />
            </Array>
          </mxGeometry>
        </mxCell>
      </root>
    </mxGraphModel>
  </diagram>
</mxfile>
